<?xml version="1.0" encoding="UTF-8" standalone="no"?>
<!-- Created with Inkscape (http://www.inkscape.org/) -->

<svg
   width="297mm"
   height="210mm"
   viewBox="0 0 297 210"
   version="1.1"
   id="svg5"
   xml:space="preserve"
   inkscape:version="1.2.2 (732a01da63, 2022-12-09, custom)"
   sodipodi:docname="logos.svg"
   xmlns:inkscape="http://www.inkscape.org/namespaces/inkscape"
   xmlns:sodipodi="http://sodipodi.sourceforge.net/DTD/sodipodi-0.dtd"
   xmlns="http://www.w3.org/2000/svg"
   xmlns:svg="http://www.w3.org/2000/svg"><sodipodi:namedview
     id="namedview7"
     pagecolor="#ffffff"
     bordercolor="#000000"
     borderopacity="0.25"
     inkscape:showpageshadow="2"
     inkscape:pageopacity="0.0"
     inkscape:pagecheckerboard="0"
     inkscape:deskcolor="#d1d1d1"
     inkscape:document-units="mm"
     showgrid="false"
     inkscape:zoom="0.70199214"
     inkscape:cx="373.22355"
     inkscape:cy="527.78368"
     inkscape:window-width="1920"
     inkscape:window-height="1016"
     inkscape:window-x="0"
     inkscape:window-y="0"
     inkscape:window-maximized="1"
     inkscape:current-layer="layer1" /><defs
     id="defs2"><inkscape:perspective
       sodipodi:type="inkscape:persp3d"
       inkscape:vp_x="78.46539 : 44.397038 : 1"
       inkscape:vp_y="0 : 2366.0803 : 0"
       inkscape:vp_z="781.19123 : 44.397038 : 1"
       inkscape:persp3d-origin="429.82831 : -38.415772 : 1"
       id="perspective1666" /></defs><g
     inkscape:label="Capa 1"
     inkscape:groupmode="layer"
     id="layer1"><path
       id="path2199"
       style="fill:#808080;fill-opacity:1;stroke:none;stroke-width:0;stroke-dasharray:none;stroke-opacity:1"
       d="m -97.069361,43.670568 a 17.593538,10.873405 15.90127 0 0 -12.911819,6.691509 17.593538,10.873405 15.90127 0 0 13.941223,15.277739 17.593538,10.873405 15.90127 0 0 10.150792,0.872752 l 8.929777,15.467109 v 8.768666 h -20.321157 a 2.8624143,2.8624143 0 0 0 -2.723845,-1.986434 2.8624143,2.8624143 0 0 0 -2.86241,2.862405 2.8624143,2.8624143 0 0 0 2.86241,2.862655 2.8624143,2.8624143 0 0 0 2.745161,-2.052368 h 20.299841 v 11.988249 h 1.686508 v -5.721588 h 18.147586 a 2.8624143,2.8624143 0 0 0 2.696827,1.908358 2.8624143,2.8624143 0 0 0 2.86241,-2.862658 2.8624143,2.8624143 0 0 0 -2.86241,-2.862409 2.8624143,2.8624143 0 0 0 -2.765241,2.130446 H -75.27288 v -4.580398 h 5.714157 v -0.01189 l 0.01462,0.0077 3.858104,-3.858104 h 6.551458 a 2.8624143,2.8624143 0 0 0 2.725089,1.989906 2.8624143,2.8624143 0 0 0 2.862405,-2.862659 2.8624143,2.8624143 0 0 0 -2.862405,-2.862405 2.8624143,2.8624143 0 0 0 -2.743431,2.048895 h -7.231618 v 0.0034 l -0.0017,-0.0019 -3.860584,3.860584 h -5.026068 v -8.73991 l 8.945396,-15.494133 a 10.873405,17.593538 74.09873 0 0 10.135168,-0.874177 10.873405,17.593538 74.09873 0 0 13.941221,-15.277739 10.873405,17.593538 74.09873 0 0 -19.899529,-5.63682 10.873405,17.593538 74.09873 0 0 -13.965515,11.517049 17.593538,10.873405 15.90127 0 0 -13.965515,-11.517049 17.593538,10.873405 15.90127 0 0 -6.987712,-1.054689 z m -1.342463,4.238583 a 15.485563,6.691825 15.90127 0 1 8.70818,1.271575 15.485563,6.691825 15.90127 0 1 13.059546,10.678505 15.485563,6.691825 15.90127 0 1 -16.726291,2.192907 15.485563,6.691825 15.90127 0 1 -13.059801,-10.678502 15.485563,6.691825 15.90127 0 1 8.018366,-3.464485 z m 44.591381,0 a 6.691825,15.485563 74.09873 0 1 8.01836,3.464485 6.691825,15.485563 74.09873 0 1 -13.059796,10.678502 6.691825,15.485563 74.09873 0 1 -16.72629,-2.192907 6.691825,15.485563 74.09873 0 1 13.059546,-10.678505 6.691825,15.485563 74.09873 0 1 8.70818,-1.271575 z M -76.959388,61.81121 v 16.795696 l -7.158,-12.398475 a 17.593538,10.873405 15.90127 0 0 7.158,-4.397221 z m 1.686508,0 a 10.873405,17.593538 74.09873 0 0 7.17312,4.400195 l -7.17312,12.424252 z m 18.863433,24.529997 a 1.3583641,1.3583641 0 0 1 1.35833,1.358326 1.3583641,1.3583641 0 0 1 -1.35833,1.35858 1.3583641,1.3583641 0 0 1 -1.358331,-1.35858 1.3583641,1.3583641 0 0 1 1.358331,-1.358326 z m -43.594943,3.924777 a 1.3583641,1.3583641 0 0 1 1.355106,1.302066 l -0.04859,0.04734 0.05106,0.0471 a 1.3583641,1.3583641 0 0 1 -1.357576,1.320408 1.3583641,1.3583641 0 0 1 -1.35833,-1.358579 1.3583641,1.3583641 0 0 1 1.35833,-1.358331 z m 45.575923,6.122648 a 1.3583641,1.3583641 0 0 1 1.35833,1.35833 1.3583641,1.3583641 0 0 1 -1.35833,1.358576 1.3583641,1.3583641 0 0 1 -1.358331,-1.358576 1.3583641,1.3583641 0 0 1 1.358331,-1.35833 z" /><g
       id="g2340"
       transform="matrix(0.33932579,0,0,0.33932579,-25.830799,-15.069705)"
       inkscape:export-filename="../ba4c4d6e/default.png"
       inkscape:export-xdpi="96"
       inkscape:export-ydpi="96"><path
         id="path2307"
         style="fill:#00979c;stroke-width:0"
         d="M 108.2983,64.949007 V 103.08621 H 96.797709 v 3.83595 H 108.2983 v 38.12893 h 80.51136 v -38.1248 h 3.64371 v 3.90157 h 3.84628 v -3.90157 h 3.9026 v -3.84679 h -3.9026 v -3.901574 h -3.84628 v 3.901574 h -3.64371 V 64.949007 Z m 61.30633,9.674345 a 10.873405,17.593538 74.09873 0 1 12.75995,6.693132 10.873405,17.593538 74.09873 0 1 -13.94127,15.278137 10.873405,17.593538 74.09873 0 1 -10.13478,0.873848 l -8.94571,15.494141 v 8.74004 h 5.02605 l 3.86075,-3.86075 0.002,0.002 v -0.003 h 7.2316 a 2.8624143,2.8624143 0 0 1 2.7435,-2.04897 2.8624143,2.8624143 0 0 1 2.86235,2.86287 2.8624143,2.8624143 0 0 1 -2.86235,2.86236 2.8624143,2.8624143 0 0 1 -2.72542,-1.99006 h -6.55102 l -3.85816,3.85816 -0.015,-0.008 v 0.0119 h -5.71386 v 4.58008 h 18.079 a 2.8624143,2.8624143 0 0 1 2.7652,-2.1301 2.8624143,2.8624143 0 0 1 2.86236,2.86235 2.8624143,2.8624143 0 0 1 -2.86236,2.86236 2.8624143,2.8624143 0 0 1 -2.69647,-1.90789 h -18.14773 v 5.72161 h -1.68672 V 123.38916 H 127.357 a 2.8624143,2.8624143 0 0 1 -2.74556,2.05207 2.8624143,2.8624143 0 0 1 -2.86236,-2.86236 2.8624143,2.8624143 0 0 1 2.86236,-2.86236 2.8624143,2.8624143 0 0 1 2.72386,1.98645 h 20.32124 v -8.76898 L 138.72693,97.467436 A 17.593538,10.873405 15.90127 0 1 128.57613,96.594621 17.593538,10.873405 15.90127 0 1 114.63486,81.317 17.593538,10.873405 15.90127 0 1 127.54674,74.625419 l -5.2e-4,-5.17e-4 a 17.593538,10.873405 15.90127 0 1 6.9882,1.054716 17.593538,10.873405 15.90127 0 1 13.96504,11.517127 10.873405,17.593538 74.09873 0 1 13.96556,-11.517127 10.873405,17.593538 74.09873 0 1 7.13961,-1.056266 z m -43.40045,4.240568 a 15.485563,6.691825 15.90127 0 0 -8.01811,3.464388 15.485563,6.691825 15.90127 0 0 13.05967,10.678418 15.485563,6.691825 15.90127 0 0 16.72611,-2.192631 15.485563,6.691825 15.90127 0 0 -13.05915,-10.678418 15.485563,6.691825 15.90127 0 0 -8.70852,-1.271757 z m 44.5916,0 a 6.691825,15.485563 74.09873 0 0 -8.70852,1.271757 6.691825,15.485563 74.09873 0 0 -13.05915,10.678418 6.691825,15.485563 74.09873 0 0 16.72611,2.192631 6.691825,15.485563 74.09873 0 0 13.05967,-10.678418 6.691825,15.485563 74.09873 0 0 -8.01811,-3.464388 z m -23.13916,13.901994 a 17.593538,10.873405 15.90127 0 1 -7.1577,4.397148 l 7.1577,12.398728 z m 1.68672,0 v 16.824296 l 7.1732,-12.424048 a 10.873405,17.593538 74.09873 0 1 -7.1732,-4.400248 z m 18.86345,24.529766 a 1.3583641,1.3583641 0 0 0 -1.35858,1.35858 1.3583641,1.3583641 0 0 0 1.35858,1.35857 1.3583641,1.3583641 0 0 0 1.35805,-1.35857 1.3583641,1.3583641 0 0 0 -1.35805,-1.35858 z m -43.59527,3.92483 a 1.3583641,1.3583641 0 0 0 -1.35806,1.35857 1.3583641,1.3583641 0 0 0 1.35806,1.35857 1.3583641,1.3583641 0 0 0 1.35805,-1.32033 l -0.0512,-0.047 0.0486,-0.0476 a 1.3583641,1.3583641 0 0 0 -1.35547,-1.30224 z m 45.57602,6.12262 a 1.3583641,1.3583641 0 0 0 -1.35805,1.35857 1.3583641,1.3583641 0 0 0 1.35805,1.35858 1.3583641,1.3583641 0 0 0 1.35858,-1.35858 1.3583641,1.3583641 0 0 0 -1.35858,-1.35857 z" /><g
         aria-label="CUBES"
         id="g2319"
         style="font-weight:bold;font-size:18.4149px;font-family:Ubuntu;-inkscape-font-specification:'Ubuntu Bold';text-align:justify;fill:#808080;stroke-width:0"
         transform="matrix(1.3989951,0,0,1.3989951,82.480124,49.813061)"><path
           d="m 24.789239,85.445362 q -3.112118,0 -4.751044,-1.731001 -1.620511,-1.731 -1.620511,-4.916778 0,-1.583681 0.497202,-2.81748 0.497202,-1.252213 1.362703,-2.099298 0.8655,-0.8655 2.062468,-1.307458 1.196969,-0.441958 2.596501,-0.441958 0.810256,0 1.473192,0.128905 0.662937,0.110489 1.160139,0.276223 0.497202,0.147319 0.82867,0.313054 0.331469,0.165734 0.478788,0.257808 l -0.828671,2.320277 q -0.589276,-0.313053 -1.381117,-0.534032 -0.773426,-0.220978 -1.767831,-0.220978 -0.662936,0 -1.307457,0.220978 -0.626107,0.220979 -1.123309,0.718181 -0.478788,0.478788 -0.773426,1.252214 -0.294639,0.773425 -0.294639,1.878319 0,0.883916 0.184149,1.657341 0.202564,0.755011 0.626107,1.307458 0.441958,0.552447 1.141724,0.883916 0.699766,0.313053 1.694171,0.313053 0.626106,0 1.123309,-0.07366 0.497202,-0.07366 0.883915,-0.165734 0.386713,-0.110489 0.681351,-0.239394 0.294638,-0.128904 0.534032,-0.239393 l 0.791841,2.301862 q -0.607692,0.368298 -1.712586,0.662937 -1.104894,0.294638 -2.559671,0.294638 z"
           id="path2309" /><path
           d="m 35.893401,85.445362 q -1.344287,0 -2.320277,-0.368298 -0.97599,-0.386713 -1.620511,-1.049649 -0.626107,-0.681352 -0.93916,-1.602097 -0.294639,-0.939159 -0.294639,-2.062468 v -7.936822 h 2.872725 v 7.697428 q 0,0.773426 0.165734,1.325873 0.184149,0.534032 0.478787,0.883915 0.313054,0.331468 0.736596,0.478787 0.441958,0.14732 0.957575,0.14732 1.049649,0 1.694171,-0.644522 0.662936,-0.644521 0.662936,-2.191373 v -7.697428 h 2.872725 v 7.936822 q 0,1.123309 -0.313054,2.062468 -0.313053,0.93916 -0.957574,1.620512 -0.644522,0.662936 -1.638927,1.031234 -0.994404,0.368298 -2.357107,0.368298 z"
           id="path2311" /><path
           d="m 48.176117,85.353288 q -1.049649,0 -2.099298,-0.07366 -1.031235,-0.05524 -2.154544,-0.294638 V 72.610177 q 0.883916,-0.165734 1.933565,-0.239394 1.049649,-0.09207 1.951979,-0.09207 1.215384,0 2.228203,0.184149 1.031234,0.165734 1.76783,0.589276 0.736596,0.423543 1.141724,1.123309 0.423543,0.681352 0.423543,1.694171 0,1.528437 -1.473192,2.412352 1.215383,0.460372 1.657341,1.252213 0.441958,0.791841 0.441958,1.786245 0,2.007225 -1.473192,3.020044 -1.454778,1.01282 -4.345917,1.01282 z M 46.72134,79.626254 v 3.296267 q 0.313053,0.03683 0.681351,0.05524 0.368298,0.01841 0.810256,0.01841 1.289043,0 2.080884,-0.368298 0.79184,-0.368298 0.79184,-1.362702 0,-0.883915 -0.662936,-1.252213 Q 49.759799,79.626254 48.526,79.626254 Z m 0,-2.191373 h 1.399532 q 1.325873,0 1.896735,-0.331469 0.570862,-0.349883 0.570862,-1.104894 0,-0.773425 -0.589277,-1.086479 -0.589277,-0.313053 -1.731,-0.313053 -0.368298,0 -0.791841,0.01842 -0.423543,0 -0.755011,0.03683 z"
           id="path2313" /><path
           d="M 56.297069,85.187553 V 72.426028 h 8.618173 v 2.412352 h -5.745448 v 2.504426 h 5.100927 v 2.357107 h -5.100927 v 3.075289 h 6.168991 v 2.412351 z"
           id="path2315" /><path
           d="m 70.936898,82.99618 q 0.607691,0 0.994404,-0.09207 0.405128,-0.11049 0.644522,-0.276224 0.239394,-0.184149 0.331468,-0.423542 0.09208,-0.239394 0.09208,-0.534032 0,-0.626107 -0.589277,-1.031235 -0.589277,-0.423543 -2.025639,-0.90233 -0.626107,-0.220979 -1.252213,-0.497202 -0.626107,-0.294639 -1.123309,-0.718181 -0.497203,-0.441958 -0.810256,-1.04965 -0.313053,-0.626106 -0.313053,-1.510021 0,-0.883916 0.331468,-1.583682 0.331468,-0.718181 0.93916,-1.215383 0.607692,-0.497202 1.473192,-0.755011 0.8655,-0.276224 1.951979,-0.276224 1.289043,0 2.228203,0.276224 0.93916,0.276223 1.546852,0.607692 l -0.828671,2.265032 q -0.534032,-0.276223 -1.196968,-0.478787 -0.644522,-0.220979 -1.565267,-0.220979 -1.031234,0 -1.491607,0.294639 -0.441957,0.276223 -0.441957,0.8655 0,0.349883 0.165734,0.589277 0.165734,0.239393 0.460372,0.441957 0.313054,0.184149 0.699767,0.349883 0.405127,0.147319 0.883915,0.313054 0.994404,0.368298 1.731,0.736596 0.736596,0.349883 1.215384,0.82867 0.497202,0.478787 0.736596,1.123309 0.239393,0.644521 0.239393,1.565266 0,1.786246 -1.252213,2.78065 -1.252213,0.97599 -3.775054,0.97599 -0.847086,0 -1.528437,-0.110489 -0.681351,-0.09208 -1.215383,-0.239394 -0.515617,-0.147319 -0.90233,-0.313053 -0.368298,-0.165734 -0.626107,-0.313054 l 0.810256,-2.283447 q 0.570861,0.313053 1.399532,0.570862 0.847085,0.239393 2.062469,0.239393 z"
           id="path2317" /></g></g><path
       id="path2467"
       style="fill:#00979c;stroke-width:0"
       d="m -88.409734,123.74007 v 12.94094 h -3.902447 v 1.30164 h 3.902447 v 12.93813 h 27.319581 v -12.93673 h 1.236405 v 1.3239 h 1.305142 v -1.3239 h 1.324253 v -1.30532 h -1.324253 v -1.3239 h -1.305142 v 1.3239 h -1.236405 v -12.93866 z m 20.802819,3.28276 a 3.6896267,5.9699412 74.09873 0 1 4.32978,2.27115 3.6896267,5.9699412 74.09873 0 1 -4.730632,5.18427 3.6896267,5.9699412 74.09873 0 1 -3.438993,0.29652 l -3.03551,5.25756 v 2.96572 h 1.705469 l 1.310052,-1.31005 6.78e-4,6.7e-4 v -0.001 h 2.453869 a 0.97129099,0.97129099 0 0 1 0.93094,-0.69527 0.97129099,0.97129099 0 0 1 0.971269,0.97144 0.97129099,0.97129099 0 0 1 -0.971269,0.97128 0.97129099,0.97129099 0 0 1 -0.924805,-0.67528 h -2.22293 l -1.309173,1.30917 -0.0051,-0.003 v 0.004 h -1.93886 v 1.55414 h 6.134671 a 0.97129099,0.97129099 0 0 1 0.938303,-0.72279 0.97129099,0.97129099 0 0 1 0.971273,0.97126 0.97129099,0.97129099 0 0 1 -0.971273,0.97128 0.97129099,0.97129099 0 0 1 -0.914982,-0.6474 h -6.157992 v 1.94149 h -0.572348 v -4.06798 h -6.888157 a 0.97129099,0.97129099 0 0 1 -0.93164,0.69632 0.97129099,0.97129099 0 0 1 -0.971272,-0.97127 0.97129099,0.97129099 0 0 1 0.971272,-0.97127 0.97129099,0.97129099 0 0 1 0.924276,0.67405 h 6.895521 v -2.97554 l -3.030047,-5.2482 a 5.9699412,3.6896267 15.90127 0 1 -3.444428,-0.29616 5.9699412,3.6896267 15.90127 0 1 -4.730633,-5.18409 5.9699412,3.6896267 15.90127 0 1 4.381334,-2.27063 l -1.76e-4,-1.8e-4 a 5.9699412,3.6896267 15.90127 0 1 2.371276,0.3579 5.9699412,3.6896267 15.90127 0 1 4.738699,3.90805 3.6896267,5.9699412 74.09873 0 1 4.738874,-3.90805 3.6896267,5.9699412 74.09873 0 1 2.422654,-0.35842 z m -14.726892,1.43893 a 5.2546509,2.2707088 15.90127 0 0 -2.720751,1.17556 5.2546509,2.2707088 15.90127 0 0 4.431482,3.62346 5.2546509,2.2707088 15.90127 0 0 5.675601,-0.74402 5.2546509,2.2707088 15.90127 0 0 -4.431306,-3.62346 5.2546509,2.2707088 15.90127 0 0 -2.955026,-0.43154 z m 15.13108,0 a 2.2707088,5.2546509 74.09873 0 0 -2.955025,0.43154 2.2707088,5.2546509 74.09873 0 0 -4.431307,3.62346 2.2707088,5.2546509 74.09873 0 0 5.675601,0.74402 2.2707088,5.2546509 74.09873 0 0 4.431482,-3.62346 2.2707088,5.2546509 74.09873 0 0 -2.720751,-1.17556 z m -7.851714,4.71731 a 5.9699412,3.6896267 15.90127 0 1 -2.428792,1.49206 l 2.428792,4.20721 z m 0.572348,0 v 5.70891 l 2.434052,-4.2158 a 3.6896267,5.9699412 74.09873 0 1 -2.434052,-1.49311 z m 6.400855,8.32358 a 0.46092797,0.46092797 0 0 0 -0.461001,0.461 0.46092797,0.46092797 0 0 0 0.461001,0.461 0.46092797,0.46092797 0 0 0 0.460821,-0.461 0.46092797,0.46092797 0 0 0 -0.460821,-0.461 z m -14.793,1.3318 a 0.46092797,0.46092797 0 0 0 -0.460824,0.46099 0.46092797,0.46092797 0 0 0 0.460824,0.461 0.46092797,0.46092797 0 0 0 0.460822,-0.44802 l -0.01737,-0.016 0.01649,-0.0162 a 0.46092797,0.46092797 0 0 0 -0.459946,-0.44188 z m 15.465119,2.07756 a 0.46092797,0.46092797 0 0 0 -0.460821,0.461 0.46092797,0.46092797 0 0 0 0.460821,0.461 0.46092797,0.46092797 0 0 0 0.461002,-0.461 0.46092797,0.46092797 0 0 0 -0.461002,-0.461 z" /><g
       aria-label="CUBES"
       id="g2479"
       style="font-weight:bold;font-size:18.4149px;font-family:Ubuntu;-inkscape-font-specification:'Ubuntu Bold';text-align:justify;fill:#808080;stroke-width:0"
       transform="matrix(0.47471512,0,0,0.47471512,-97.170507,118.60406)"><path
         d="m 24.789239,85.445362 q -3.112118,0 -4.751044,-1.731001 -1.620511,-1.731 -1.620511,-4.916778 0,-1.583681 0.497202,-2.81748 0.497202,-1.252213 1.362703,-2.099298 0.8655,-0.8655 2.062468,-1.307458 1.196969,-0.441958 2.596501,-0.441958 0.810256,0 1.473192,0.128905 0.662937,0.110489 1.160139,0.276223 0.497202,0.147319 0.82867,0.313054 0.331469,0.165734 0.478788,0.257808 l -0.828671,2.320277 q -0.589276,-0.313053 -1.381117,-0.534032 -0.773426,-0.220978 -1.767831,-0.220978 -0.662936,0 -1.307457,0.220978 -0.626107,0.220979 -1.123309,0.718181 -0.478788,0.478788 -0.773426,1.252214 -0.294639,0.773425 -0.294639,1.878319 0,0.883916 0.184149,1.657341 0.202564,0.755011 0.626107,1.307458 0.441958,0.552447 1.141724,0.883916 0.699766,0.313053 1.694171,0.313053 0.626106,0 1.123309,-0.07366 0.497202,-0.07366 0.883915,-0.165734 0.386713,-0.110489 0.681351,-0.239394 0.294638,-0.128904 0.534032,-0.239393 l 0.791841,2.301862 q -0.607692,0.368298 -1.712586,0.662937 -1.104894,0.294638 -2.559671,0.294638 z"
         id="path2469" /><path
         d="m 35.893401,85.445362 q -1.344287,0 -2.320277,-0.368298 -0.97599,-0.386713 -1.620511,-1.049649 -0.626107,-0.681352 -0.93916,-1.602097 -0.294639,-0.939159 -0.294639,-2.062468 v -7.936822 h 2.872725 v 7.697428 q 0,0.773426 0.165734,1.325873 0.184149,0.534032 0.478787,0.883915 0.313054,0.331468 0.736596,0.478787 0.441958,0.14732 0.957575,0.14732 1.049649,0 1.694171,-0.644522 0.662936,-0.644521 0.662936,-2.191373 v -7.697428 h 2.872725 v 7.936822 q 0,1.123309 -0.313054,2.062468 -0.313053,0.93916 -0.957574,1.620512 -0.644522,0.662936 -1.638927,1.031234 -0.994404,0.368298 -2.357107,0.368298 z"
         id="path2471" /><path
         d="m 48.176117,85.353288 q -1.049649,0 -2.099298,-0.07366 -1.031235,-0.05524 -2.154544,-0.294638 V 72.610177 q 0.883916,-0.165734 1.933565,-0.239394 1.049649,-0.09207 1.951979,-0.09207 1.215384,0 2.228203,0.184149 1.031234,0.165734 1.76783,0.589276 0.736596,0.423543 1.141724,1.123309 0.423543,0.681352 0.423543,1.694171 0,1.528437 -1.473192,2.412352 1.215383,0.460372 1.657341,1.252213 0.441958,0.791841 0.441958,1.786245 0,2.007225 -1.473192,3.020044 -1.454778,1.01282 -4.345917,1.01282 z M 46.72134,79.626254 v 3.296267 q 0.313053,0.03683 0.681351,0.05524 0.368298,0.01841 0.810256,0.01841 1.289043,0 2.080884,-0.368298 0.79184,-0.368298 0.79184,-1.362702 0,-0.883915 -0.662936,-1.252213 Q 49.759799,79.626254 48.526,79.626254 Z m 0,-2.191373 h 1.399532 q 1.325873,0 1.896735,-0.331469 0.570862,-0.349883 0.570862,-1.104894 0,-0.773425 -0.589277,-1.086479 -0.589277,-0.313053 -1.731,-0.313053 -0.368298,0 -0.791841,0.01842 -0.423543,0 -0.755011,0.03683 z"
         id="path2473" /><path
         d="M 56.297069,85.187553 V 72.426028 h 8.618173 v 2.412352 h -5.745448 v 2.504426 h 5.100927 v 2.357107 h -5.100927 v 3.075289 h 6.168991 v 2.412351 z"
         id="path2475" /><path
         d="m 70.936898,82.99618 q 0.607691,0 0.994404,-0.09207 0.405128,-0.11049 0.644522,-0.276224 0.239394,-0.184149 0.331468,-0.423542 0.09208,-0.239394 0.09208,-0.534032 0,-0.626107 -0.589277,-1.031235 -0.589277,-0.423543 -2.025639,-0.90233 -0.626107,-0.220979 -1.252213,-0.497202 -0.626107,-0.294639 -1.123309,-0.718181 -0.497203,-0.441958 -0.810256,-1.04965 -0.313053,-0.626106 -0.313053,-1.510021 0,-0.883916 0.331468,-1.583682 0.331468,-0.718181 0.93916,-1.215383 0.607692,-0.497202 1.473192,-0.755011 0.8655,-0.276224 1.951979,-0.276224 1.289043,0 2.228203,0.276224 0.93916,0.276223 1.546852,0.607692 l -0.828671,2.265032 q -0.534032,-0.276223 -1.196968,-0.478787 -0.644522,-0.220979 -1.565267,-0.220979 -1.031234,0 -1.491607,0.294639 -0.441957,0.276223 -0.441957,0.8655 0,0.349883 0.165734,0.589277 0.165734,0.239393 0.460372,0.441957 0.313054,0.184149 0.699767,0.349883 0.405127,0.147319 0.883915,0.313054 0.994404,0.368298 1.731,0.736596 0.736596,0.349883 1.215384,0.82867 0.497202,0.478787 0.736596,1.123309 0.239393,0.644521 0.239393,1.565266 0,1.786246 -1.252213,2.78065 -1.252213,0.97599 -3.775054,0.97599 -0.847086,0 -1.528437,-0.110489 -0.681351,-0.09208 -1.215383,-0.239394 -0.515617,-0.147319 -0.90233,-0.313053 -0.368298,-0.165734 -0.626107,-0.313054 l 0.810256,-2.283447 q 0.570861,0.313053 1.399532,0.570862 0.847085,0.239393 2.062469,0.239393 z"
         id="path2477" /></g><g
       id="g2547"
       transform="matrix(0.33932579,0,0,0.33932579,13.278834,-15.069705)"
       inkscape:export-filename="../b724b4b6/blanco.png"
       inkscape:export-xdpi="96"
       inkscape:export-ydpi="96"><path
         id="path2533"
         style="fill:#00979c;stroke-width:0"
         d="M 108.2983,64.949007 V 103.08621 H 96.797709 v 3.83595 H 108.2983 v 38.12893 h 80.51136 v -38.1248 h 3.64371 v 3.90157 h 3.84628 v -3.90157 h 3.9026 v -3.84679 h -3.9026 v -3.901574 h -3.84628 v 3.901574 h -3.64371 V 64.949007 Z m 61.30633,9.674345 a 10.873405,17.593538 74.09873 0 1 12.75995,6.693132 10.873405,17.593538 74.09873 0 1 -13.94127,15.278137 10.873405,17.593538 74.09873 0 1 -10.13478,0.873848 l -8.94571,15.494141 v 8.74004 h 5.02605 l 3.86075,-3.86075 0.002,0.002 v -0.003 h 7.2316 a 2.8624143,2.8624143 0 0 1 2.7435,-2.04897 2.8624143,2.8624143 0 0 1 2.86235,2.86287 2.8624143,2.8624143 0 0 1 -2.86235,2.86236 2.8624143,2.8624143 0 0 1 -2.72542,-1.99006 h -6.55102 l -3.85816,3.85816 -0.015,-0.008 v 0.0119 h -5.71386 v 4.58008 h 18.079 a 2.8624143,2.8624143 0 0 1 2.7652,-2.1301 2.8624143,2.8624143 0 0 1 2.86236,2.86235 2.8624143,2.8624143 0 0 1 -2.86236,2.86236 2.8624143,2.8624143 0 0 1 -2.69647,-1.90789 h -18.14773 v 5.72161 h -1.68672 V 123.38916 H 127.357 a 2.8624143,2.8624143 0 0 1 -2.74556,2.05207 2.8624143,2.8624143 0 0 1 -2.86236,-2.86236 2.8624143,2.8624143 0 0 1 2.86236,-2.86236 2.8624143,2.8624143 0 0 1 2.72386,1.98645 h 20.32124 v -8.76898 L 138.72693,97.467436 A 17.593538,10.873405 15.90127 0 1 128.57613,96.594621 17.593538,10.873405 15.90127 0 1 114.63486,81.317 17.593538,10.873405 15.90127 0 1 127.54674,74.625419 l -5.2e-4,-5.17e-4 a 17.593538,10.873405 15.90127 0 1 6.9882,1.054716 17.593538,10.873405 15.90127 0 1 13.96504,11.517127 10.873405,17.593538 74.09873 0 1 13.96556,-11.517127 10.873405,17.593538 74.09873 0 1 7.13961,-1.056266 z m -43.40045,4.240568 a 15.485563,6.691825 15.90127 0 0 -8.01811,3.464388 15.485563,6.691825 15.90127 0 0 13.05967,10.678418 15.485563,6.691825 15.90127 0 0 16.72611,-2.192631 15.485563,6.691825 15.90127 0 0 -13.05915,-10.678418 15.485563,6.691825 15.90127 0 0 -8.70852,-1.271757 z m 44.5916,0 a 6.691825,15.485563 74.09873 0 0 -8.70852,1.271757 6.691825,15.485563 74.09873 0 0 -13.05915,10.678418 6.691825,15.485563 74.09873 0 0 16.72611,2.192631 6.691825,15.485563 74.09873 0 0 13.05967,-10.678418 6.691825,15.485563 74.09873 0 0 -8.01811,-3.464388 z m -23.13916,13.901994 a 17.593538,10.873405 15.90127 0 1 -7.1577,4.397148 l 7.1577,12.398728 z m 1.68672,0 v 16.824296 l 7.1732,-12.424048 a 10.873405,17.593538 74.09873 0 1 -7.1732,-4.400248 z m 18.86345,24.529766 a 1.3583641,1.3583641 0 0 0 -1.35858,1.35858 1.3583641,1.3583641 0 0 0 1.35858,1.35857 1.3583641,1.3583641 0 0 0 1.35805,-1.35857 1.3583641,1.3583641 0 0 0 -1.35805,-1.35858 z m -43.59527,3.92483 a 1.3583641,1.3583641 0 0 0 -1.35806,1.35857 1.3583641,1.3583641 0 0 0 1.35806,1.35857 1.3583641,1.3583641 0 0 0 1.35805,-1.32033 l -0.0512,-0.047 0.0486,-0.0476 a 1.3583641,1.3583641 0 0 0 -1.35547,-1.30224 z m 45.57602,6.12262 a 1.3583641,1.3583641 0 0 0 -1.35805,1.35857 1.3583641,1.3583641 0 0 0 1.35805,1.35858 1.3583641,1.3583641 0 0 0 1.35858,-1.35858 1.3583641,1.3583641 0 0 0 -1.35858,-1.35857 z" /><g
         aria-label="CUBES"
         id="g2545"
         style="font-weight:bold;font-size:18.4149px;font-family:Ubuntu;-inkscape-font-specification:'Ubuntu Bold';text-align:justify;fill:#ffffff;stroke-width:0"
         transform="matrix(1.3989951,0,0,1.3989951,82.480124,49.813061)"><path
           d="m 24.789239,85.445362 q -3.112118,0 -4.751044,-1.731001 -1.620511,-1.731 -1.620511,-4.916778 0,-1.583681 0.497202,-2.81748 0.497202,-1.252213 1.362703,-2.099298 0.8655,-0.8655 2.062468,-1.307458 1.196969,-0.441958 2.596501,-0.441958 0.810256,0 1.473192,0.128905 0.662937,0.110489 1.160139,0.276223 0.497202,0.147319 0.82867,0.313054 0.331469,0.165734 0.478788,0.257808 l -0.828671,2.320277 q -0.589276,-0.313053 -1.381117,-0.534032 -0.773426,-0.220978 -1.767831,-0.220978 -0.662936,0 -1.307457,0.220978 -0.626107,0.220979 -1.123309,0.718181 -0.478788,0.478788 -0.773426,1.252214 -0.294639,0.773425 -0.294639,1.878319 0,0.883916 0.184149,1.657341 0.202564,0.755011 0.626107,1.307458 0.441958,0.552447 1.141724,0.883916 0.699766,0.313053 1.694171,0.313053 0.626106,0 1.123309,-0.07366 0.497202,-0.07366 0.883915,-0.165734 0.386713,-0.110489 0.681351,-0.239394 0.294638,-0.128904 0.534032,-0.239393 l 0.791841,2.301862 q -0.607692,0.368298 -1.712586,0.662937 -1.104894,0.294638 -2.559671,0.294638 z"
           id="path2535"
           style="fill:#ffffff" /><path
           d="m 35.893401,85.445362 q -1.344287,0 -2.320277,-0.368298 -0.97599,-0.386713 -1.620511,-1.049649 -0.626107,-0.681352 -0.93916,-1.602097 -0.294639,-0.939159 -0.294639,-2.062468 v -7.936822 h 2.872725 v 7.697428 q 0,0.773426 0.165734,1.325873 0.184149,0.534032 0.478787,0.883915 0.313054,0.331468 0.736596,0.478787 0.441958,0.14732 0.957575,0.14732 1.049649,0 1.694171,-0.644522 0.662936,-0.644521 0.662936,-2.191373 v -7.697428 h 2.872725 v 7.936822 q 0,1.123309 -0.313054,2.062468 -0.313053,0.93916 -0.957574,1.620512 -0.644522,0.662936 -1.638927,1.031234 -0.994404,0.368298 -2.357107,0.368298 z"
           id="path2537"
           style="fill:#ffffff" /><path
           d="m 48.176117,85.353288 q -1.049649,0 -2.099298,-0.07366 -1.031235,-0.05524 -2.154544,-0.294638 V 72.610177 q 0.883916,-0.165734 1.933565,-0.239394 1.049649,-0.09207 1.951979,-0.09207 1.215384,0 2.228203,0.184149 1.031234,0.165734 1.76783,0.589276 0.736596,0.423543 1.141724,1.123309 0.423543,0.681352 0.423543,1.694171 0,1.528437 -1.473192,2.412352 1.215383,0.460372 1.657341,1.252213 0.441958,0.791841 0.441958,1.786245 0,2.007225 -1.473192,3.020044 -1.454778,1.01282 -4.345917,1.01282 z M 46.72134,79.626254 v 3.296267 q 0.313053,0.03683 0.681351,0.05524 0.368298,0.01841 0.810256,0.01841 1.289043,0 2.080884,-0.368298 0.79184,-0.368298 0.79184,-1.362702 0,-0.883915 -0.662936,-1.252213 Q 49.759799,79.626254 48.526,79.626254 Z m 0,-2.191373 h 1.399532 q 1.325873,0 1.896735,-0.331469 0.570862,-0.349883 0.570862,-1.104894 0,-0.773425 -0.589277,-1.086479 -0.589277,-0.313053 -1.731,-0.313053 -0.368298,0 -0.791841,0.01842 -0.423543,0 -0.755011,0.03683 z"
           id="path2539"
           style="fill:#ffffff" /><path
           d="M 56.297069,85.187553 V 72.426028 h 8.618173 v 2.412352 h -5.745448 v 2.504426 h 5.100927 v 2.357107 h -5.100927 v 3.075289 h 6.168991 v 2.412351 z"
           id="path2541"
           style="fill:#ffffff" /><path
           d="m 70.936898,82.99618 q 0.607691,0 0.994404,-0.09207 0.405128,-0.11049 0.644522,-0.276224 0.239394,-0.184149 0.331468,-0.423542 0.09208,-0.239394 0.09208,-0.534032 0,-0.626107 -0.589277,-1.031235 -0.589277,-0.423543 -2.025639,-0.90233 -0.626107,-0.220979 -1.252213,-0.497202 -0.626107,-0.294639 -1.123309,-0.718181 -0.497203,-0.441958 -0.810256,-1.04965 -0.313053,-0.626106 -0.313053,-1.510021 0,-0.883916 0.331468,-1.583682 0.331468,-0.718181 0.93916,-1.215383 0.607692,-0.497202 1.473192,-0.755011 0.8655,-0.276224 1.951979,-0.276224 1.289043,0 2.228203,0.276224 0.93916,0.276223 1.546852,0.607692 l -0.828671,2.265032 q -0.534032,-0.276223 -1.196968,-0.478787 -0.644522,-0.220979 -1.565267,-0.220979 -1.031234,0 -1.491607,0.294639 -0.441957,0.276223 -0.441957,0.8655 0,0.349883 0.165734,0.589277 0.165734,0.239393 0.460372,0.441957 0.313054,0.184149 0.699767,0.349883 0.405127,0.147319 0.883915,0.313054 0.994404,0.368298 1.731,0.736596 0.736596,0.349883 1.215384,0.82867 0.497202,0.478787 0.736596,1.123309 0.239393,0.644521 0.239393,1.565266 0,1.786246 -1.252213,2.78065 -1.252213,0.97599 -3.775054,0.97599 -0.847086,0 -1.528437,-0.110489 -0.681351,-0.09208 -1.215383,-0.239394 -0.515617,-0.147319 -0.90233,-0.313053 -0.368298,-0.165734 -0.626107,-0.313054 l 0.810256,-2.283447 q 0.570861,0.313053 1.399532,0.570862 0.847085,0.239393 2.062469,0.239393 z"
           id="path2543"
           style="fill:#ffffff" /></g></g><g
       id="g2563"
       transform="matrix(0.33932579,0,0,0.33932579,52.77126,-15.069705)"
       style="fill:#000000"
       inkscape:export-filename="../c49d0e1d/negro.png"
       inkscape:export-xdpi="96"
       inkscape:export-ydpi="96"><path
         id="path2549"
         style="fill:#000000;stroke-width:0"
         d="M 108.2983,64.949007 V 103.08621 H 96.797709 v 3.83595 H 108.2983 v 38.12893 h 80.51136 v -38.1248 h 3.64371 v 3.90157 h 3.84628 v -3.90157 h 3.9026 v -3.84679 h -3.9026 v -3.901574 h -3.84628 v 3.901574 h -3.64371 V 64.949007 Z m 61.30633,9.674345 a 10.873405,17.593538 74.09873 0 1 12.75995,6.693132 10.873405,17.593538 74.09873 0 1 -13.94127,15.278137 10.873405,17.593538 74.09873 0 1 -10.13478,0.873848 l -8.94571,15.494141 v 8.74004 h 5.02605 l 3.86075,-3.86075 0.002,0.002 v -0.003 h 7.2316 a 2.8624143,2.8624143 0 0 1 2.7435,-2.04897 2.8624143,2.8624143 0 0 1 2.86235,2.86287 2.8624143,2.8624143 0 0 1 -2.86235,2.86236 2.8624143,2.8624143 0 0 1 -2.72542,-1.99006 h -6.55102 l -3.85816,3.85816 -0.015,-0.008 v 0.0119 h -5.71386 v 4.58008 h 18.079 a 2.8624143,2.8624143 0 0 1 2.7652,-2.1301 2.8624143,2.8624143 0 0 1 2.86236,2.86235 2.8624143,2.8624143 0 0 1 -2.86236,2.86236 2.8624143,2.8624143 0 0 1 -2.69647,-1.90789 h -18.14773 v 5.72161 h -1.68672 V 123.38916 H 127.357 a 2.8624143,2.8624143 0 0 1 -2.74556,2.05207 2.8624143,2.8624143 0 0 1 -2.86236,-2.86236 2.8624143,2.8624143 0 0 1 2.86236,-2.86236 2.8624143,2.8624143 0 0 1 2.72386,1.98645 h 20.32124 v -8.76898 L 138.72693,97.467436 A 17.593538,10.873405 15.90127 0 1 128.57613,96.594621 17.593538,10.873405 15.90127 0 1 114.63486,81.317 17.593538,10.873405 15.90127 0 1 127.54674,74.625419 l -5.2e-4,-5.17e-4 a 17.593538,10.873405 15.90127 0 1 6.9882,1.054716 17.593538,10.873405 15.90127 0 1 13.96504,11.517127 10.873405,17.593538 74.09873 0 1 13.96556,-11.517127 10.873405,17.593538 74.09873 0 1 7.13961,-1.056266 z m -43.40045,4.240568 a 15.485563,6.691825 15.90127 0 0 -8.01811,3.464388 15.485563,6.691825 15.90127 0 0 13.05967,10.678418 15.485563,6.691825 15.90127 0 0 16.72611,-2.192631 15.485563,6.691825 15.90127 0 0 -13.05915,-10.678418 15.485563,6.691825 15.90127 0 0 -8.70852,-1.271757 z m 44.5916,0 a 6.691825,15.485563 74.09873 0 0 -8.70852,1.271757 6.691825,15.485563 74.09873 0 0 -13.05915,10.678418 6.691825,15.485563 74.09873 0 0 16.72611,2.192631 6.691825,15.485563 74.09873 0 0 13.05967,-10.678418 6.691825,15.485563 74.09873 0 0 -8.01811,-3.464388 z m -23.13916,13.901994 a 17.593538,10.873405 15.90127 0 1 -7.1577,4.397148 l 7.1577,12.398728 z m 1.68672,0 v 16.824296 l 7.1732,-12.424048 a 10.873405,17.593538 74.09873 0 1 -7.1732,-4.400248 z m 18.86345,24.529766 a 1.3583641,1.3583641 0 0 0 -1.35858,1.35858 1.3583641,1.3583641 0 0 0 1.35858,1.35857 1.3583641,1.3583641 0 0 0 1.35805,-1.35857 1.3583641,1.3583641 0 0 0 -1.35805,-1.35858 z m -43.59527,3.92483 a 1.3583641,1.3583641 0 0 0 -1.35806,1.35857 1.3583641,1.3583641 0 0 0 1.35806,1.35857 1.3583641,1.3583641 0 0 0 1.35805,-1.32033 l -0.0512,-0.047 0.0486,-0.0476 a 1.3583641,1.3583641 0 0 0 -1.35547,-1.30224 z m 45.57602,6.12262 a 1.3583641,1.3583641 0 0 0 -1.35805,1.35857 1.3583641,1.3583641 0 0 0 1.35805,1.35858 1.3583641,1.3583641 0 0 0 1.35858,-1.35858 1.3583641,1.3583641 0 0 0 -1.35858,-1.35857 z" /><g
         aria-label="CUBES"
         id="g2561"
         style="font-weight:bold;font-size:18.4149px;font-family:Ubuntu;-inkscape-font-specification:'Ubuntu Bold';text-align:justify;fill:#000000;stroke-width:0"
         transform="matrix(1.3989951,0,0,1.3989951,82.480124,49.813061)"><path
           d="m 24.789239,85.445362 q -3.112118,0 -4.751044,-1.731001 -1.620511,-1.731 -1.620511,-4.916778 0,-1.583681 0.497202,-2.81748 0.497202,-1.252213 1.362703,-2.099298 0.8655,-0.8655 2.062468,-1.307458 1.196969,-0.441958 2.596501,-0.441958 0.810256,0 1.473192,0.128905 0.662937,0.110489 1.160139,0.276223 0.497202,0.147319 0.82867,0.313054 0.331469,0.165734 0.478788,0.257808 l -0.828671,2.320277 q -0.589276,-0.313053 -1.381117,-0.534032 -0.773426,-0.220978 -1.767831,-0.220978 -0.662936,0 -1.307457,0.220978 -0.626107,0.220979 -1.123309,0.718181 -0.478788,0.478788 -0.773426,1.252214 -0.294639,0.773425 -0.294639,1.878319 0,0.883916 0.184149,1.657341 0.202564,0.755011 0.626107,1.307458 0.441958,0.552447 1.141724,0.883916 0.699766,0.313053 1.694171,0.313053 0.626106,0 1.123309,-0.07366 0.497202,-0.07366 0.883915,-0.165734 0.386713,-0.110489 0.681351,-0.239394 0.294638,-0.128904 0.534032,-0.239393 l 0.791841,2.301862 q -0.607692,0.368298 -1.712586,0.662937 -1.104894,0.294638 -2.559671,0.294638 z"
           id="path2551"
           style="fill:#000000" /><path
           d="m 35.893401,85.445362 q -1.344287,0 -2.320277,-0.368298 -0.97599,-0.386713 -1.620511,-1.049649 -0.626107,-0.681352 -0.93916,-1.602097 -0.294639,-0.939159 -0.294639,-2.062468 v -7.936822 h 2.872725 v 7.697428 q 0,0.773426 0.165734,1.325873 0.184149,0.534032 0.478787,0.883915 0.313054,0.331468 0.736596,0.478787 0.441958,0.14732 0.957575,0.14732 1.049649,0 1.694171,-0.644522 0.662936,-0.644521 0.662936,-2.191373 v -7.697428 h 2.872725 v 7.936822 q 0,1.123309 -0.313054,2.062468 -0.313053,0.93916 -0.957574,1.620512 -0.644522,0.662936 -1.638927,1.031234 -0.994404,0.368298 -2.357107,0.368298 z"
           id="path2553"
           style="fill:#000000" /><path
           d="m 48.176117,85.353288 q -1.049649,0 -2.099298,-0.07366 -1.031235,-0.05524 -2.154544,-0.294638 V 72.610177 q 0.883916,-0.165734 1.933565,-0.239394 1.049649,-0.09207 1.951979,-0.09207 1.215384,0 2.228203,0.184149 1.031234,0.165734 1.76783,0.589276 0.736596,0.423543 1.141724,1.123309 0.423543,0.681352 0.423543,1.694171 0,1.528437 -1.473192,2.412352 1.215383,0.460372 1.657341,1.252213 0.441958,0.791841 0.441958,1.786245 0,2.007225 -1.473192,3.020044 -1.454778,1.01282 -4.345917,1.01282 z M 46.72134,79.626254 v 3.296267 q 0.313053,0.03683 0.681351,0.05524 0.368298,0.01841 0.810256,0.01841 1.289043,0 2.080884,-0.368298 0.79184,-0.368298 0.79184,-1.362702 0,-0.883915 -0.662936,-1.252213 Q 49.759799,79.626254 48.526,79.626254 Z m 0,-2.191373 h 1.399532 q 1.325873,0 1.896735,-0.331469 0.570862,-0.349883 0.570862,-1.104894 0,-0.773425 -0.589277,-1.086479 -0.589277,-0.313053 -1.731,-0.313053 -0.368298,0 -0.791841,0.01842 -0.423543,0 -0.755011,0.03683 z"
           id="path2555"
           style="fill:#000000" /><path
           d="M 56.297069,85.187553 V 72.426028 h 8.618173 v 2.412352 h -5.745448 v 2.504426 h 5.100927 v 2.357107 h -5.100927 v 3.075289 h 6.168991 v 2.412351 z"
           id="path2557"
           style="fill:#000000" /><path
           d="m 70.936898,82.99618 q 0.607691,0 0.994404,-0.09207 0.405128,-0.11049 0.644522,-0.276224 0.239394,-0.184149 0.331468,-0.423542 0.09208,-0.239394 0.09208,-0.534032 0,-0.626107 -0.589277,-1.031235 -0.589277,-0.423543 -2.025639,-0.90233 -0.626107,-0.220979 -1.252213,-0.497202 -0.626107,-0.294639 -1.123309,-0.718181 -0.497203,-0.441958 -0.810256,-1.04965 -0.313053,-0.626106 -0.313053,-1.510021 0,-0.883916 0.331468,-1.583682 0.331468,-0.718181 0.93916,-1.215383 0.607692,-0.497202 1.473192,-0.755011 0.8655,-0.276224 1.951979,-0.276224 1.289043,0 2.228203,0.276224 0.93916,0.276223 1.546852,0.607692 l -0.828671,2.265032 q -0.534032,-0.276223 -1.196968,-0.478787 -0.644522,-0.220979 -1.565267,-0.220979 -1.031234,0 -1.491607,0.294639 -0.441957,0.276223 -0.441957,0.8655 0,0.349883 0.165734,0.589277 0.165734,0.239393 0.460372,0.441957 0.313054,0.184149 0.699767,0.349883 0.405127,0.147319 0.883915,0.313054 0.994404,0.368298 1.731,0.736596 0.736596,0.349883 1.215384,0.82867 0.497202,0.478787 0.736596,1.123309 0.239393,0.644521 0.239393,1.565266 0,1.786246 -1.252213,2.78065 -1.252213,0.97599 -3.775054,0.97599 -0.847086,0 -1.528437,-0.110489 -0.681351,-0.09208 -1.215383,-0.239394 -0.515617,-0.147319 -0.90233,-0.313053 -0.368298,-0.165734 -0.626107,-0.313054 l 0.810256,-2.283447 q 0.570861,0.313053 1.399532,0.570862 0.847085,0.239393 2.062469,0.239393 z"
           id="path2559"
           style="fill:#000000" /></g></g><g
       id="g2579"
       transform="matrix(0.33932579,0,0,0.33932579,91.396513,-15.069705)"
       style="fill:#b3b3b3"
       inkscape:export-filename="../e9300f79/gris.png"
       inkscape:export-xdpi="96"
       inkscape:export-ydpi="96"><path
         id="path2565"
         style="fill:#b3b3b3;stroke-width:0"
         d="M 108.2983,64.949007 V 103.08621 H 96.797709 v 3.83595 H 108.2983 v 38.12893 h 80.51136 v -38.1248 h 3.64371 v 3.90157 h 3.84628 v -3.90157 h 3.9026 v -3.84679 h -3.9026 v -3.901574 h -3.84628 v 3.901574 h -3.64371 V 64.949007 Z m 61.30633,9.674345 a 10.873405,17.593538 74.09873 0 1 12.75995,6.693132 10.873405,17.593538 74.09873 0 1 -13.94127,15.278137 10.873405,17.593538 74.09873 0 1 -10.13478,0.873848 l -8.94571,15.494141 v 8.74004 h 5.02605 l 3.86075,-3.86075 0.002,0.002 v -0.003 h 7.2316 a 2.8624143,2.8624143 0 0 1 2.7435,-2.04897 2.8624143,2.8624143 0 0 1 2.86235,2.86287 2.8624143,2.8624143 0 0 1 -2.86235,2.86236 2.8624143,2.8624143 0 0 1 -2.72542,-1.99006 h -6.55102 l -3.85816,3.85816 -0.015,-0.008 v 0.0119 h -5.71386 v 4.58008 h 18.079 a 2.8624143,2.8624143 0 0 1 2.7652,-2.1301 2.8624143,2.8624143 0 0 1 2.86236,2.86235 2.8624143,2.8624143 0 0 1 -2.86236,2.86236 2.8624143,2.8624143 0 0 1 -2.69647,-1.90789 h -18.14773 v 5.72161 h -1.68672 V 123.38916 H 127.357 a 2.8624143,2.8624143 0 0 1 -2.74556,2.05207 2.8624143,2.8624143 0 0 1 -2.86236,-2.86236 2.8624143,2.8624143 0 0 1 2.86236,-2.86236 2.8624143,2.8624143 0 0 1 2.72386,1.98645 h 20.32124 v -8.76898 L 138.72693,97.467436 A 17.593538,10.873405 15.90127 0 1 128.57613,96.594621 17.593538,10.873405 15.90127 0 1 114.63486,81.317 17.593538,10.873405 15.90127 0 1 127.54674,74.625419 l -5.2e-4,-5.17e-4 a 17.593538,10.873405 15.90127 0 1 6.9882,1.054716 17.593538,10.873405 15.90127 0 1 13.96504,11.517127 10.873405,17.593538 74.09873 0 1 13.96556,-11.517127 10.873405,17.593538 74.09873 0 1 7.13961,-1.056266 z m -43.40045,4.240568 a 15.485563,6.691825 15.90127 0 0 -8.01811,3.464388 15.485563,6.691825 15.90127 0 0 13.05967,10.678418 15.485563,6.691825 15.90127 0 0 16.72611,-2.192631 15.485563,6.691825 15.90127 0 0 -13.05915,-10.678418 15.485563,6.691825 15.90127 0 0 -8.70852,-1.271757 z m 44.5916,0 a 6.691825,15.485563 74.09873 0 0 -8.70852,1.271757 6.691825,15.485563 74.09873 0 0 -13.05915,10.678418 6.691825,15.485563 74.09873 0 0 16.72611,2.192631 6.691825,15.485563 74.09873 0 0 13.05967,-10.678418 6.691825,15.485563 74.09873 0 0 -8.01811,-3.464388 z m -23.13916,13.901994 a 17.593538,10.873405 15.90127 0 1 -7.1577,4.397148 l 7.1577,12.398728 z m 1.68672,0 v 16.824296 l 7.1732,-12.424048 a 10.873405,17.593538 74.09873 0 1 -7.1732,-4.400248 z m 18.86345,24.529766 a 1.3583641,1.3583641 0 0 0 -1.35858,1.35858 1.3583641,1.3583641 0 0 0 1.35858,1.35857 1.3583641,1.3583641 0 0 0 1.35805,-1.35857 1.3583641,1.3583641 0 0 0 -1.35805,-1.35858 z m -43.59527,3.92483 a 1.3583641,1.3583641 0 0 0 -1.35806,1.35857 1.3583641,1.3583641 0 0 0 1.35806,1.35857 1.3583641,1.3583641 0 0 0 1.35805,-1.32033 l -0.0512,-0.047 0.0486,-0.0476 a 1.3583641,1.3583641 0 0 0 -1.35547,-1.30224 z m 45.57602,6.12262 a 1.3583641,1.3583641 0 0 0 -1.35805,1.35857 1.3583641,1.3583641 0 0 0 1.35805,1.35858 1.3583641,1.3583641 0 0 0 1.35858,-1.35858 1.3583641,1.3583641 0 0 0 -1.35858,-1.35857 z" /><g
         aria-label="CUBES"
         id="g2577"
         style="font-weight:bold;font-size:18.4149px;font-family:Ubuntu;-inkscape-font-specification:'Ubuntu Bold';text-align:justify;fill:#b3b3b3;stroke-width:0"
         transform="matrix(1.3989951,0,0,1.3989951,82.480124,49.813061)"><path
           d="m 24.789239,85.445362 q -3.112118,0 -4.751044,-1.731001 -1.620511,-1.731 -1.620511,-4.916778 0,-1.583681 0.497202,-2.81748 0.497202,-1.252213 1.362703,-2.099298 0.8655,-0.8655 2.062468,-1.307458 1.196969,-0.441958 2.596501,-0.441958 0.810256,0 1.473192,0.128905 0.662937,0.110489 1.160139,0.276223 0.497202,0.147319 0.82867,0.313054 0.331469,0.165734 0.478788,0.257808 l -0.828671,2.320277 q -0.589276,-0.313053 -1.381117,-0.534032 -0.773426,-0.220978 -1.767831,-0.220978 -0.662936,0 -1.307457,0.220978 -0.626107,0.220979 -1.123309,0.718181 -0.478788,0.478788 -0.773426,1.252214 -0.294639,0.773425 -0.294639,1.878319 0,0.883916 0.184149,1.657341 0.202564,0.755011 0.626107,1.307458 0.441958,0.552447 1.141724,0.883916 0.699766,0.313053 1.694171,0.313053 0.626106,0 1.123309,-0.07366 0.497202,-0.07366 0.883915,-0.165734 0.386713,-0.110489 0.681351,-0.239394 0.294638,-0.128904 0.534032,-0.239393 l 0.791841,2.301862 q -0.607692,0.368298 -1.712586,0.662937 -1.104894,0.294638 -2.559671,0.294638 z"
           id="path2567"
           style="fill:#b3b3b3" /><path
           d="m 35.893401,85.445362 q -1.344287,0 -2.320277,-0.368298 -0.97599,-0.386713 -1.620511,-1.049649 -0.626107,-0.681352 -0.93916,-1.602097 -0.294639,-0.939159 -0.294639,-2.062468 v -7.936822 h 2.872725 v 7.697428 q 0,0.773426 0.165734,1.325873 0.184149,0.534032 0.478787,0.883915 0.313054,0.331468 0.736596,0.478787 0.441958,0.14732 0.957575,0.14732 1.049649,0 1.694171,-0.644522 0.662936,-0.644521 0.662936,-2.191373 v -7.697428 h 2.872725 v 7.936822 q 0,1.123309 -0.313054,2.062468 -0.313053,0.93916 -0.957574,1.620512 -0.644522,0.662936 -1.638927,1.031234 -0.994404,0.368298 -2.357107,0.368298 z"
           id="path2569"
           style="fill:#b3b3b3" /><path
           d="m 48.176117,85.353288 q -1.049649,0 -2.099298,-0.07366 -1.031235,-0.05524 -2.154544,-0.294638 V 72.610177 q 0.883916,-0.165734 1.933565,-0.239394 1.049649,-0.09207 1.951979,-0.09207 1.215384,0 2.228203,0.184149 1.031234,0.165734 1.76783,0.589276 0.736596,0.423543 1.141724,1.123309 0.423543,0.681352 0.423543,1.694171 0,1.528437 -1.473192,2.412352 1.215383,0.460372 1.657341,1.252213 0.441958,0.791841 0.441958,1.786245 0,2.007225 -1.473192,3.020044 -1.454778,1.01282 -4.345917,1.01282 z M 46.72134,79.626254 v 3.296267 q 0.313053,0.03683 0.681351,0.05524 0.368298,0.01841 0.810256,0.01841 1.289043,0 2.080884,-0.368298 0.79184,-0.368298 0.79184,-1.362702 0,-0.883915 -0.662936,-1.252213 Q 49.759799,79.626254 48.526,79.626254 Z m 0,-2.191373 h 1.399532 q 1.325873,0 1.896735,-0.331469 0.570862,-0.349883 0.570862,-1.104894 0,-0.773425 -0.589277,-1.086479 -0.589277,-0.313053 -1.731,-0.313053 -0.368298,0 -0.791841,0.01842 -0.423543,0 -0.755011,0.03683 z"
           id="path2571"
           style="fill:#b3b3b3" /><path
           d="M 56.297069,85.187553 V 72.426028 h 8.618173 v 2.412352 h -5.745448 v 2.504426 h 5.100927 v 2.357107 h -5.100927 v 3.075289 h 6.168991 v 2.412351 z"
           id="path2573"
           style="fill:#b3b3b3" /><path
           d="m 70.936898,82.99618 q 0.607691,0 0.994404,-0.09207 0.405128,-0.11049 0.644522,-0.276224 0.239394,-0.184149 0.331468,-0.423542 0.09208,-0.239394 0.09208,-0.534032 0,-0.626107 -0.589277,-1.031235 -0.589277,-0.423543 -2.025639,-0.90233 -0.626107,-0.220979 -1.252213,-0.497202 -0.626107,-0.294639 -1.123309,-0.718181 -0.497203,-0.441958 -0.810256,-1.04965 -0.313053,-0.626106 -0.313053,-1.510021 0,-0.883916 0.331468,-1.583682 0.331468,-0.718181 0.93916,-1.215383 0.607692,-0.497202 1.473192,-0.755011 0.8655,-0.276224 1.951979,-0.276224 1.289043,0 2.228203,0.276224 0.93916,0.276223 1.546852,0.607692 l -0.828671,2.265032 q -0.534032,-0.276223 -1.196968,-0.478787 -0.644522,-0.220979 -1.565267,-0.220979 -1.031234,0 -1.491607,0.294639 -0.441957,0.276223 -0.441957,0.8655 0,0.349883 0.165734,0.589277 0.165734,0.239393 0.460372,0.441957 0.313054,0.184149 0.699767,0.349883 0.405127,0.147319 0.883915,0.313054 0.994404,0.368298 1.731,0.736596 0.736596,0.349883 1.215384,0.82867 0.497202,0.478787 0.736596,1.123309 0.239393,0.644521 0.239393,1.565266 0,1.786246 -1.252213,2.78065 -1.252213,0.97599 -3.775054,0.97599 -0.847086,0 -1.528437,-0.110489 -0.681351,-0.09208 -1.215383,-0.239394 -0.515617,-0.147319 -0.90233,-0.313053 -0.368298,-0.165734 -0.626107,-0.313054 l 0.810256,-2.283447 q 0.570861,0.313053 1.399532,0.570862 0.847085,0.239393 2.062469,0.239393 z"
           id="path2575"
           style="fill:#b3b3b3" /></g></g><path
       id="path2645"
       style="fill:#808080;fill-opacity:1;stroke:none;stroke-width:0;stroke-dasharray:none;stroke-opacity:1"
       d="M 19.74866,91.946613 A 17.593538,10.873405 15.90127 0 0 6.8368397,98.638122 17.593538,10.873405 15.90127 0 0 20.77806,113.91586 a 17.593538,10.873405 15.90127 0 0 10.15079,0.87275 l 8.92978,15.46711 v 8.76867 H 19.53747 a 2.8624143,2.8624143 0 0 0 -2.72384,-1.98643 2.8624143,2.8624143 0 0 0 -2.86241,2.8624 2.8624143,2.8624143 0 0 0 2.86241,2.86266 2.8624143,2.8624143 0 0 0 2.74516,-2.05237 h 20.29984 v 11.98825 h 1.68651 v -5.72159 h 18.14758 a 2.8624143,2.8624143 0 0 0 2.69683,1.90836 2.8624143,2.8624143 0 0 0 2.86241,-2.86266 2.8624143,2.8624143 0 0 0 -2.86241,-2.86241 2.8624143,2.8624143 0 0 0 -2.76524,2.13045 H 41.54514 v -4.5804 h 5.71415 v -0.0119 l 0.0146,0.008 3.85811,-3.85811 h 6.55146 a 2.8624143,2.8624143 0 0 0 2.72509,1.98991 2.8624143,2.8624143 0 0 0 2.8624,-2.86266 2.8624143,2.8624143 0 0 0 -2.8624,-2.8624 2.8624143,2.8624143 0 0 0 -2.74344,2.04889 H 50.4335 v 0.003 l -0.002,-0.002 -3.86059,3.86058 h -5.02607 v -8.73991 l 8.9454,-15.49413 A 10.873405,17.593538 74.09873 0 0 60.62541,113.91574 10.873405,17.593538 74.09873 0 0 74.56663,98.638004 10.873405,17.593538 74.09873 0 0 54.6671,93.001184 10.873405,17.593538 74.09873 0 0 40.70159,104.51823 17.593538,10.873405 15.90127 0 0 26.73607,93.001184 17.593538,10.873405 15.90127 0 0 19.74836,91.946495 Z m -1.34247,4.238583 a 15.485563,6.691825 15.90127 0 1 8.70818,1.271575 15.485563,6.691825 15.90127 0 1 13.05955,10.678509 15.485563,6.691825 15.90127 0 1 -16.72629,2.1929 15.485563,6.691825 15.90127 0 1 -13.0598,-10.678502 15.485563,6.691825 15.90127 0 1 8.01836,-3.464482 z m 44.59138,0 a 6.691825,15.485563 74.09873 0 1 8.01836,3.464482 6.691825,15.485563 74.09873 0 1 -13.05979,10.678502 6.691825,15.485563 74.09873 0 1 -16.72629,-2.1929 6.691825,15.485563 74.09873 0 1 13.05954,-10.678509 6.691825,15.485563 74.09873 0 1 8.70818,-1.271575 z M 39.85863,110.08726 v 16.79569 l -7.158,-12.39847 a 17.593538,10.873405 15.90127 0 0 7.158,-4.39722 z m 1.68651,0 a 10.873405,17.593538 74.09873 0 0 7.17312,4.40019 l -7.17312,12.42425 z m 18.86343,24.52999 a 1.3583641,1.3583641 0 0 1 1.35833,1.35833 1.3583641,1.3583641 0 0 1 -1.35833,1.35858 1.3583641,1.3583641 0 0 1 -1.35833,-1.35858 1.3583641,1.3583641 0 0 1 1.35833,-1.35833 z m -43.59494,3.92478 a 1.3583641,1.3583641 0 0 1 1.3551,1.30207 l -0.0486,0.0473 0.0511,0.0471 a 1.3583641,1.3583641 0 0 1 -1.35757,1.3204 1.3583641,1.3583641 0 0 1 -1.35833,-1.35857 1.3583641,1.3583641 0 0 1 1.35833,-1.35834 z m 45.57592,6.12265 a 1.3583641,1.3583641 0 0 1 1.35833,1.35833 1.3583641,1.3583641 0 0 1 -1.35833,1.35857 1.3583641,1.3583641 0 0 1 -1.35833,-1.35857 1.3583641,1.3583641 0 0 1 1.35833,-1.35833 z"
       inkscape:export-filename="../24fe3f3b/arbol.png"
       inkscape:export-xdpi="96"
       inkscape:export-ydpi="96" /></g></svg>
