<?xml version="1.0" standalone="no"?>
<!DOCTYPE svg PUBLIC "-//W3C//DTD SVG 1.1//EN"
  "http://www.w3.org/Graphics/SVG/1.1/DTD/svg11.dtd">
<svg width="102.00199890136719mm" height="102.00099945068357mm" viewBox="-48 -51.00099945068358 102.00199890136719 102.00099945068357" xmlns="http://www.w3.org/2000/svg" version="1.1">
	<title>svgOutput</title>
	<desc>made with tinkercad</desc>
<path d="M 53 -37.00799942016601 L 53.00199890136719 -37.006999969482415 L 53.00199890136719 -27.02799987792968 L 50.99800109863281 -27.02799987792968 L 50.49800109863281 -27.02799987792968 L 49.97200012207031 -27.02799987792968 L 49.97200012207031 1.1102230246251565e-16 L 49.97200012207031 35.50799942016601 L 49.97200012207031 37.02199935913085 L 50.99800109863281 37.02199935913085 L 53 37.02199935913085 L 53.00199890136719 37.022998809814446 L 53.00199890136719 47.002998352050774 L 53 47.002998352050774 L 50.99800109863281 47.00130462646484 L 49.97200012207031 47.00043869018554 L 40.005001068115234 46.99200057983398 L 40.005001068115234 49.00299835205077 L 40.005001068115234 49.50299835205077 L 40.005001068115234 49.999999999999986 L 32.768001556396484 49.999999999999986 L 30.99799919128418 49.999999999999986 L 30.024999618530273 49.999999999999986 L 30.024999618530273 49.00299835205077 L 30.024999618530273 46.99200057983398 L 7.989999771118164 46.99200057983398 L 0 46.99200057983398 L -1.9900000095367432 46.99200057983398 L -34.025001525878906 46.99200057983398 L -34.025001525878906 49.00299835205077 L -34.025001525878906 49.999999999999986 L -34.040000915527344 49.999999999999986 L -44.00400161743164 49.999999999999986 L -44.005001068115234 49.9980010986328 L -44.0062255859375 49.00299835205077 L -44.020999908447266 37.00600051879882 L -46.00299835205078 37.00600051879882 L -46.50299835205078 37.00600051879882 L -47 37.00600051879882 L -47 32.76800155639648 L -47 27.02599906921386 L -46.50299835205078 27.02599906921386 L -46.00299835205078 27.02599906921386 L -44.020999908447266 27.02599906921386 L -44.020999908447266 4.992000102996825 L -44.020999908447266 1.1102230246251565e-16 L -44.020999908447266 -32.76800155639648 L -44.020999908447266 -37.02399826049804 L -46.00299835205078 -37.02399826049804 L -47 -37.02399826049804 L -47 -47.00099945068359 L -47 -47.00400161743163 L -46.99800109863281 -47.00500106811523 L -46.00299835205078 -47.00469207763671 L -34.00400161743164 -47.00099945068359 L -34.00400161743164 -47.998001098632805 L -34.00400161743164 -49.999999999999986 L -24.02400016784668 -50.00099945068358 L -24.02400016784668 -47.998001098632805 L -24.02400016784668 -47.498001098632805 L -24.02400016784668 -47.00099945068359 L -1.9900000095367432 -47.00099945068359 L 0 -47.00099945068359 L 32.768001556396484 -47.00099945068359 L 39.992000579833984 -47.00099945068359 L 40.025001525878906 -47.00099945068359 L 40.025001525878906 -47.998001098632805 L 40.025001525878906 -49.99900054931639 L 40.0260009765625 -50.00099945068358 L 49.97200012207031 -50.00099945068358 L 50.005001068115234 -50.00099945068358 L 50.005001068115234 -49.99900054931639 L 49.999916076660156 -47.998001098632805 L 49.9758415222168 -38.52008056640624 L 49.97200012207031 -37.00799942016601 L 50.49800109863281 -37.00799942016601 L 50.99800109863281 -37.00799942016601 L 53 -37.00799942016601 M 11.567000389099121 -16.483999252319332 L 11.736916542053223 -16.38400077819824 L 13.204999923706055 -15.520000457763668 L 14.729000091552734 -14.39999961853027 L 16.128999710083008 -13.133999824523922 L 16.384000778198242 -12.851361274719235 L 17.39299964904785 -11.73299980163574 L 18.51099967956543 -10.206999778747557 L 19.472000122070312 -8.56700038909912 L 20.266000747680664 -6.823999881744383 L 20.881999969482422 -4.988999843597411 L 32.768001556396484 -4.988999843597411 L 39.992000579833984 -4.988999843597411 L 39.992000579833984 -37.02099990844726 L 32.768001556396484 -37.02099990844726 L 7.989999771118164 -37.02099990844726 L 7.989999771118164 -32.76800155639648 L 7.989999771118164 -18.589145660400387 L 7.989999771118164 -18.118495941162106 L 7.989999771118164 -17.898000717163082 L 9.824999809265137 -17.280000686645504 L 11.567000389099121 -16.483999252319332 M 20.239999771118164 6.824999809265135 L 19.447999954223633 8.56599998474121 L 18.48900032043457 10.204999923706053 L 17.374000549316406 11.729000091552733 L 16.384000778198242 12.828912734985348 L 16.113000869750977 13.130000114440914 L 14.715999603271484 14.395999908447262 L 13.194999694824219 15.517000198364254 L 11.724517822265625 16.38400077819824 L 11.5600004196167 16.48100090026855 L 9.821999549865723 17.278999328613278 L 7.989999771118164 17.89999961853027 L 7.989999771118164 18.12015914916992 L 7.989999771118164 32.76800155639648 L 7.989999771118164 37.01200103759765 L 32.768001556396484 37.01200103759765 L 39.992000579833984 37.01200103759765 L 39.992000579833984 4.992000102996825 L 32.768001556396484 4.992000102996825 L 21.539194107055664 4.992000102996825 L 21.0738525390625 4.992000102996825 L 20.854000091552734 4.992000102996825 L 20.239999771118164 6.824999809265135 M -5.574999809265137 16.493000030517575 L -5.76096773147583 16.38400077819824 L -7.2179999351501465 15.529999732971188 L -8.746000289916992 14.411000251770016 L -10.149999618530273 13.145000457763668 L -11.418000221252441 11.743000030517576 L -12.538999557495117 10.215999603271483 L -13.503999710083008 8.574999809265135 L -13.678709030151367 8.19200038909912 L -14.300000190734863 6.829999923706053 L -14.918000221252441 4.992000102996825 L -16.384000778198242 4.992000102996825 L -32.768001556396484 4.992000102996825 L -34.040000915527344 4.992000102996825 L -34.040000915527344 32.76800155639648 L -34.040000915527344 37.00600051879882 L -34.040000915527344 37.01200103759765 L -1.9900000095367432 37.01200103759765 L -1.9900000095367432 32.76800155639648 L -1.9900000095367432 18.594251632690426 L -1.9900000095367432 18.12329292297363 L -1.9900000095367432 17.90200042724609 L -3.8289999961853027 17.287000656127926 L -5.574999809265137 16.493000030517575 M 6.105000019073486 -9.392000198364256 L 4.581999778747559 -9.767000198364256 L 2.9760000705718994 -9.895999908447264 L 1.371000051498413 -9.767000198364256 L 0 -9.42964744567871 L -0.15299999713897705 -9.392000198364256 L -1.5729999542236328 -8.79199981689453 L -2.539708137512207 -8.19200038909912 L -2.869999885559082 -7.986999988555906 L -4.0229997634887695 -6.997000217437742 L -5.013000011444092 -5.8439998626708975 L -5.817999839782715 -4.546999931335448 L -6.418000221252441 -3.127000093460082 L -6.793000221252441 -1.6039999723434444 L -6.921839237213135 1.1102230246251565e-16 L -6.921999931335449 0.002000000094995013 L -6.793000221252441 1.6069999933242793 L -6.418000221252441 3.130000114440917 L -5.817999839782715 4.551000118255614 L -5.013000011444092 5.848000049591064 L -4.0229997634887695 7.00099992752075 L -2.869999885559082 7.989999771118162 L -2.544541597366333 8.19200038909912 L -1.5729999542236328 8.795000076293944 L -0.15299999713897705 9.39500045776367 L 0 9.432647705078123 L 1.371000051498413 9.77000045776367 L 2.9760000705718994 9.899999618530272 L 4.581999778747559 9.77000045776367 L 6.105000019073486 9.39500045776367 L 7.525000095367432 8.795000076293944 L 8.496541976928711 8.19200038909912 L 8.821999549865723 7.989999771118162 L 9.975000381469727 7.00099992752075 L 10.96500015258789 5.847000122070312 L 11.770000457763672 4.550000190734862 L 12.369999885559082 3.130000114440917 L 12.744999885559082 1.6069999933242793 L 12.87399959564209 0.002000000094995013 L 12.873839378356934 1.1102230246251565e-16 L 12.744999885559082 -1.6039999723434444 L 12.369999885559082 -3.127000093460082 L 11.770000457763672 -4.546999931335448 L 10.96500015258789 -5.8439998626708975 L 9.975000381469727 -6.997000217437742 L 8.821999549865723 -7.986999988555906 L 7.525000095367432 -8.79199981689453 L 6.105000019073486 -9.392000198364256 M -1.9900000095367432 -17.89100074768066 L -1.9900000095367432 -32.76800155639648 L -1.9900000095367432 -37.02099990844726 L -34.040000915527344 -37.02099990844726 L -34.040000915527344 -32.76800155639648 L -34.040000915527344 -4.988999843597411 L -32.768001556396484 -4.988999843597411 L -16.384000778198242 -4.988999843597411 L -15.147071838378906 -4.988999843597411 L -14.925999641418457 -4.988999843597411 L -14.307000160217285 -6.826000213623045 L -13.682319641113281 -8.19200038909912 L -13.508999824523926 -8.571000099182127 L -12.543999671936035 -10.211999893188475 L -11.420999526977539 -11.737999916076658 L -10.152999877929688 -13.13899993896484 L -8.748000144958496 -14.404000282287594 L -7.218999862670898 -15.522000312805172 L -5.74525785446167 -16.38400077819824 L -5.576000213623047 -16.48299980163574 L -3.8289999961853027 -17.275999069213864 L -1.9900000095367432 -17.89100074768066 z" fill="none" stroke="rgb(255,0,0)" stroke-width="0.001mm" />
</svg>